<svg xmlns="http://www.w3.org/2000/svg" width="32.282" height="32.445" viewBox="0 0 32.282 32.445"><path d="M23.448,15.606A3.844,3.844,0,1,0,27.3,19.45,3.844,3.844,0,0,0,23.448,15.606Zm0,5.122a.531.531,0,1,1,0,.022Zm0-10.244a8.846,8.846,0,0,0-8.836,8.836v.229c0,2.457,1.376,5.275,4.1,8.4a34.589,34.589,0,0,0,3.932,3.844l.808.655.808-.655A35.19,35.19,0,0,0,28.2,27.947c2.709-3.124,4.1-5.941,4.1-8.4v-.229a8.857,8.857,0,0,0-8.846-8.836Zm6.28,9.065c0,3.276-3.986,7.514-6.28,9.556a34.589,34.589,0,0,1-2.818-2.84c-2.261-2.6-3.462-4.926-3.462-6.717v-.229a6.28,6.28,0,1,1,12.56,0ZM17.867,32.458H6.552a3.844,3.844,0,0,1-3.866-3.844v-14.1l-.568.491a1.267,1.267,0,0,1-1.8-.131h0A1.267,1.267,0,0,1,.436,13.1L15.191.261a1.092,1.092,0,0,1,1.387,0l9.076,7.874a11.282,11.282,0,0,0-2.184-.218,11.883,11.883,0,0,0-1.54.109.535.535,0,0,1-.437-.131L16.261,3.374a.568.568,0,0,0-.743,0L5.252,12.286V28.668a1.289,1.289,0,0,0,1.3,1.234H16.709a.688.688,0,0,1,.5.218c.382.426.765.83,1.092,1.2a.666.666,0,0,1-.437,1.136Z" transform="translate(-0.012 -0.013)" fill="#fff"/></svg>