<svg xmlns="http://www.w3.org/2000/svg" width="116.592" height="124.374" viewBox="0 0 116.592 124.374"><path d="M40.092,0c1.049.369,2.123.7,3.138,1.152a8.06,8.06,0,0,1,5.047,6.225,4.13,4.13,0,0,0,2.78,3.323c1.4.609,2.824,1.159,4.312,1.765,0-.281.026-.58.041-.879a3.406,3.406,0,0,1,3.371-3.567,15.1,15.1,0,0,1,5.11.694c3.729,1.359,7.465,1.085,11.25.617.24-.03.48-.063.738-.081,3.917-.284,5.841,1.44,5.974,5.42a14.093,14.093,0,0,1-.17,2.9c-.421,2.381.048,4.578,1.972,6.018,3.256,2.444,4.682,5.752,5.254,9.6A5.733,5.733,0,0,0,92.6,38.033a10.186,10.186,0,0,1,4.235,3.714,2.787,2.787,0,0,0,3.29,1.108c1.625-.473,3.249-.96,4.9-1.351,3.544-.846,5.52,1.3,5.228,4.933-.5,6.277-3.877,10.94-7.909,15.293a37.462,37.462,0,0,1-5.727,5.4c-3.009,2.1-4.039,4.951-4.01,8.333.03,3.832.126,7.676.432,11.5.369,4.523-1.041,7.329-5.084,9.408L85.9,97.409a2.389,2.389,0,0,0-1.277,2.85c1.089,6.177-.93,10.962-6.181,14.514-3.212,2.171-6.151,4.737-9.312,6.986a12.077,12.077,0,0,1-7.665,2.6,10.434,10.434,0,0,1-5.907-2.241,5.835,5.835,0,0,1-1.846-3.589,10.438,10.438,0,0,0-1.026-2.932,13.972,13.972,0,0,1-2.215-5.959,14.876,14.876,0,0,0-2.452-6.509,17.122,17.122,0,0,1-2.784-9.873,9.116,9.116,0,0,1,.233-1.676,2.459,2.459,0,0,1,2.706-1.9,2.411,2.411,0,0,1,2.09,2.585c-.554,3.437.7,6.336,2.433,9.142a20.436,20.436,0,0,1,2.688,7.694,19.548,19.548,0,0,0,1.292,3.6c.617,1.647,1.211,3.3,1.879,4.925a2.378,2.378,0,0,0,.89,1.141,4.485,4.485,0,0,0,4.733.092c2.215-1.34,4.338-2.8,6.435-4.3,2-1.436,3.9-3.016,5.889-4.479a8.2,8.2,0,0,0,3.323-8.544c-.665-4.028.462-6.646,3.995-8.617.631-.369,1.292-.665,1.935-1,2.079-1.078,2.618-1.846,2.285-4.168a66.327,66.327,0,0,1-.369-12.952c.229-4.5,1.536-8.341,5.4-11.106,3.718-2.662,6.583-6.206,9.33-9.825,1.728-2.274,2.308-3.873,2.71-7.244-1.418.369-2.788.738-4.179,1.034a7.31,7.31,0,0,1-7.8-2.61,11.6,11.6,0,0,0-3.556-3c-3.223-1.654-4.752-4.357-5.483-7.7-.052-.236-.114-.473-.144-.713A9.52,9.52,0,0,0,80.414,27.3a10.675,10.675,0,0,1-3.57-10.847,11.668,11.668,0,0,0,.018-2.215,64.394,64.394,0,0,1-8.156.428,64.8,64.8,0,0,1-7.868-1.532,3.5,3.5,0,0,1-1.37,3.725,4.811,4.811,0,0,1-4.711.775,76.3,76.3,0,0,1-7.244-3.323A7.082,7.082,0,0,1,43.578,8.8c-.288-2.289-1.846-3.2-3.792-3.692a6.856,6.856,0,0,0-5.878,1.1,10.07,10.07,0,0,1-7.632,2.064,7.13,7.13,0,0,0-4.63,1.085A3.7,3.7,0,0,0,19.328,12.7a6.127,6.127,0,0,1-4.6,6.022,11.842,11.842,0,0,0-6.779,5.907A8.1,8.1,0,0,0,7.1,28.319,22.832,22.832,0,0,1,5.91,35.832c-2.053,5.76-.694,10.67,3.906,14.606a77.4,77.4,0,0,0,6.542,4.8,2.215,2.215,0,0,0,1.676.188,21.8,21.8,0,0,1,6.712-.713,8.106,8.106,0,0,0,4.039-.875A8.689,8.689,0,0,1,35.433,53c2.13.432,4.264.838,6.41,1.2A4.312,4.312,0,0,1,45.5,59.229a30.276,30.276,0,0,1-1.348,5.125,1.512,1.512,0,0,0,.558,2.038,19.494,19.494,0,0,1,2.828,2.636,2.429,2.429,0,0,1-.151,3.482,2.494,2.494,0,0,1-3.567-.31c-.827-.827-1.713-1.6-2.614-2.341-2.215-1.846-2.8-3.692-1.9-6.454.462-1.4.938-2.8,1.392-4.15-2.455-.546-4.722-1.108-7.015-1.529a3.231,3.231,0,0,0-2.049.262,14.26,14.26,0,0,1-7.927,1.746,35.167,35.167,0,0,0-4.634.561c-1.108.1-2.4.454-3.271.018C8.687,56.774,2.381,52.428.409,44A15.2,15.2,0,0,1,.889,35.4,23.357,23.357,0,0,0,2.218,28.06c.107-6.35,3.862-10.275,9.038-13.185a1.108,1.108,0,0,1,.336-.137c2.175-.48,3.057-1.817,3.039-4.032A5.35,5.35,0,0,1,16.917,6.72c2.765-2.289,5.859-3.766,9.57-3.323a7.114,7.114,0,0,0,4.582-1.159A51.846,51.846,0,0,1,35.964,0Z" transform="translate(-0.005)" fill="#caa45d"/><path d="M280.247,231.085A26.877,26.877,0,0,1,279,234.821c-.9,1.846-2.016,3.567-3.039,5.343-.764,1.322-1.521,2.651-2.293,3.969a35.317,35.317,0,0,1-2.584,4.235,7.069,7.069,0,0,1-7.366,2.584c-2.728-.491-4.589-3.323-4.235-6.6a16.615,16.615,0,0,1,1.034-4.582,31.283,31.283,0,0,0,1.986-7.7c.369-2.511,1.477-4.368,4.139-5.084a4.838,4.838,0,0,0,2-1.584c.8-.9,1.373-2.009,2.215-2.884a4.841,4.841,0,0,1,8.052.967,23.177,23.177,0,0,1,1.326,3.46Zm-5.741-5.42c-.521.738-1,1.329-1.377,1.975a8.669,8.669,0,0,1-4.874,4.12,1.745,1.745,0,0,0-.864,1.222,33.058,33.058,0,0,1-2.252,8.492,11.148,11.148,0,0,0-.683,3.164c-.055.462.122,1.325.34,1.377a2.917,2.917,0,0,0,1.846-.192,3.323,3.323,0,0,0,1.237-1.281c.62-1.03,1.108-2.141,1.7-3.2a23.563,23.563,0,0,1,2.263-3.832,15.666,15.666,0,0,0,3.493-7.72A6.029,6.029,0,0,0,274.506,225.665Z" transform="translate(-163.655 -139.269)" fill="#caa45d"/><path d="M129.936,215.723a2.415,2.415,0,0,1-2.415,2.485,2.463,2.463,0,0,1-2.452-2.474,2.544,2.544,0,0,1,2.381-2.444,2.466,2.466,0,0,1,2.485,2.433Z" transform="translate(-78.894 -134.54)" fill="#caa45d"/></svg>