<svg xmlns="http://www.w3.org/2000/svg" width="27.306" height="30.13" viewBox="0 0 27.306 30.13"><path d="M3.034,30.13A3.023,3.023,0,0,1,0,27.118L.015,6.026A3.01,3.01,0,0,1,3.034,3.013H4.551V0H7.586V3.013H19.72V0h3.035V3.013h1.517a3.032,3.032,0,0,1,3.034,3.013V27.118a3.032,3.032,0,0,1-3.034,3.013Zm0-3.013H24.272V10.546H3.034ZM18.2,24.1V19.584h4.552V24.1Zm-6.067,0V19.584h4.551V24.1Zm-6.069,0V19.584h4.552V24.1ZM18.2,18.078V13.559h4.552v4.519Zm-6.067,0V13.559h4.551v4.519Zm-6.069,0V13.559h4.552v4.519Z" fill="#caa45d"/></svg>