<svg xmlns="http://www.w3.org/2000/svg" width="67.182" height="67.182" viewBox="0 0 67.182 67.182">
  <path id="ic_call_24px" d="M16.511,32.075a56.54,56.54,0,0,0,24.6,24.6l8.211-8.211a3.711,3.711,0,0,1,3.807-.9A42.575,42.575,0,0,0,66.45,49.692a3.743,3.743,0,0,1,3.732,3.732V66.45a3.743,3.743,0,0,1-3.732,3.732A63.444,63.444,0,0,1,3,6.732,3.743,3.743,0,0,1,6.732,3H19.8a3.743,3.743,0,0,1,3.732,3.732,42.4,42.4,0,0,0,2.127,13.324,3.746,3.746,0,0,1-.933,3.807Z" transform="translate(-3 -3)" fill="#caa45d"/>
</svg>
