<svg xmlns="http://www.w3.org/2000/svg" width="35.342" height="35.277" viewBox="0 0 35.342 35.277"><path d="M17.578,0a17.638,17.638,0,1,0,17.7,17.573A17.638,17.638,0,0,0,17.578,0Zm0,33.223a15.618,15.618,0,1,1,11.076-4.574,15.585,15.585,0,0,1-11.076,4.574Z" transform="translate(0.06 0)" fill="#008340"/><path d="M17.055,5.68a11.435,11.435,0,0,0,0,22.87A11.784,11.784,0,0,0,24.1,26.213,1.038,1.038,0,1,0,22.843,24.6a9.7,9.7,0,0,1-5.788,1.922,9.382,9.382,0,1,1,9.436-9.447v.972a2.064,2.064,0,1,1-4.074,0V12.91a1.092,1.092,0,0,0-2.075,0v.066a5.319,5.319,0,0,0-3.276-1.092,5.166,5.166,0,0,0,0,10.332,5.373,5.373,0,0,0,3.975-1.78,4.128,4.128,0,0,0,7.514-2.392V17.017A11.479,11.479,0,0,0,17.055,5.68Zm0,14.482a3.113,3.113,0,0,1,0-6.225,3.276,3.276,0,0,1,3.276,3.113A3.276,3.276,0,0,1,17.055,20.162Z" transform="translate(0.583 0.523)" fill="#008340"/></svg>