<svg xmlns="http://www.w3.org/2000/svg" width="115.401" height="115.401" viewBox="0 0 115.401 115.401"><path d="M47.275,61.7A14.425,14.425,0,1,0,61.7,76.126,14.468,14.468,0,0,0,47.275,61.7ZM18.425,32.85A14.425,14.425,0,1,0,32.85,47.275,14.468,14.468,0,0,0,18.425,32.85Zm0,57.7A14.425,14.425,0,1,0,32.85,104.976,14.468,14.468,0,0,0,18.425,90.551Zm86.551-57.7A14.425,14.425,0,1,0,90.551,18.425,14.468,14.468,0,0,0,104.976,32.85Zm-28.85,57.7a14.425,14.425,0,1,0,14.425,14.425A14.468,14.468,0,0,0,76.126,90.551Zm28.85-28.85A14.425,14.425,0,1,0,119.4,76.126,14.468,14.468,0,0,0,104.976,61.7ZM76.126,32.85A14.425,14.425,0,1,0,90.551,47.275,14.468,14.468,0,0,0,76.126,32.85ZM47.275,4A14.425,14.425,0,1,0,61.7,18.425,14.468,14.468,0,0,0,47.275,4Z" transform="translate(-4 -4)" fill="#caa45d"/></svg>