<svg xmlns="http://www.w3.org/2000/svg" width="94.264" height="84.837" viewBox="0 0 94.264 84.837">
  <path id="ic_domain_24px" d="M49.132,21.853V3H2V87.837H96.264V21.853ZM20.853,78.411H11.426V68.985h9.426Zm0-18.853H11.426V50.132h9.426Zm0-18.853H11.426V31.279h9.426Zm0-18.853H11.426V12.426h9.426ZM39.706,78.411H30.279V68.985h9.426Zm0-18.853H30.279V50.132h9.426Zm0-18.853H30.279V31.279h9.426Zm0-18.853H30.279V12.426h9.426ZM86.837,78.411H49.132V68.985h9.426V59.558H49.132V50.132h9.426V40.706H49.132V31.279H86.837ZM77.411,40.706H67.985v9.426h9.426Zm0,18.853H67.985v9.426h9.426Z" transform="translate(-2 -3)" fill="#caa45d"/>
</svg>
