<svg xmlns="http://www.w3.org/2000/svg" width="71.256" height="67.693" viewBox="0 0 71.256 67.693">
  <path id="ic_next_week_24px" d="M66.13,17.251H51.879V10.126a6.966,6.966,0,0,0-2.1-5.024A6.966,6.966,0,0,0,44.754,3H30.5a7.147,7.147,0,0,0-7.126,7.126v7.126H9.126A7.147,7.147,0,0,0,2,24.377V63.568a7.147,7.147,0,0,0,7.126,7.126h57a7.147,7.147,0,0,0,7.126-7.126V24.377A7.147,7.147,0,0,0,66.13,17.251ZM30.5,10.126H44.754v7.126H30.5Zm3.563,48.1L30.5,54.661,41.191,43.972,30.5,33.284l3.563-3.563L48.316,43.972Z" transform="translate(-2 -3)" fill="#caa45d"/>
</svg>
