<svg xmlns="http://www.w3.org/2000/svg" xmlns:xlink="http://www.w3.org/1999/xlink" width="331.165" height="84.39" viewBox="0 0 331.165 84.39"><defs><linearGradient id="a" x1="0.561" y1="0.658" x2="0.772" y2="0.491" gradientUnits="objectBoundingBox"><stop offset="0" stop-color="#fff" stop-opacity="0"/><stop offset="1" stop-color="#fff" stop-opacity="0.4"/></linearGradient></defs><g transform="translate(0 -4)"><g transform="translate(0 4)"><path d="M140.642,17.52h-5.312L127.58,39.442h4.715l1.458-4.451h8.333l1.472,4.451h4.861Zm-5.625,13.7,2.9-8.812,2.937,8.812Z" transform="translate(-38.989 -5.354)" fill="#1d714d"/><path d="M177.416,21.416v-3.9h-15.6V39.442H166.4v-9.27h9.6V26.4h-9.6V21.416Z" transform="translate(-49.453 -5.354)" fill="#1d714d"/><path d="M206.259,38.127a4.744,4.744,0,0,1-.208-1.535l-.1-3.6A4.127,4.127,0,0,0,204,29.239a4.035,4.035,0,0,0-.736-.361,6.02,6.02,0,0,0,1.285-.653,5.2,5.2,0,0,0,2.139-4.625,5.6,5.6,0,0,0-1.917-4.423,7.4,7.4,0,0,0-5.055-1.68H188.67V39.432h4.576V30.78h4.562a4.777,4.777,0,0,1,2.778.625,2.514,2.514,0,0,1,.875,2.083v2.028a21.749,21.749,0,0,0,.146,2.423,4.472,4.472,0,0,0,.319,1.465h5.055v-.583A1.389,1.389,0,0,1,206.259,38.127ZM201.2,26.364a4.166,4.166,0,0,1-2.66.729h-5.312V21.316h5.486a3.784,3.784,0,0,1,2.541.694,2.687,2.687,0,0,1,.833,2.167,2.653,2.653,0,0,1-.875,2.187Z" transform="translate(-57.658 -5.344)" fill="#1d714d"/><path d="M219.9,17.52V39.442h4.576V17.52Z" transform="translate(-67.202 -5.354)" fill="#1d714d"/><path d="M244.654,34.641a4.861,4.861,0,0,1-3.326,1.16,4.652,4.652,0,0,1-4.021-1.986,9.249,9.249,0,0,1-1.444-5.507,9.778,9.778,0,0,1,1.444-5.645,4.618,4.618,0,0,1,3.993-2.028,5.159,5.159,0,0,1,3.326,1.042,4.09,4.09,0,0,1,1.521,2.812h4.6a8.43,8.43,0,0,0-3.021-5.715,9.826,9.826,0,0,0-6.458-2.118,9.222,9.222,0,0,0-7.354,3.153q-2.729,3.16-2.722,8.534,0,5.27,2.722,8.333a9.312,9.312,0,0,0,7.381,3.132,9.569,9.569,0,0,0,6.507-2.236,8.986,8.986,0,0,0,2.972-6.1h-4.6A4.722,4.722,0,0,1,244.654,34.641Z" transform="translate(-70.652 -5.087)" fill="#1d714d"/><path d="M275.034,17.52h-5.319L262,39.442h4.708l1.458-4.451H276.5l1.479,4.451h4.861Zm-5.625,13.7,2.9-8.812,2.93,8.812Z" transform="translate(-80.068 -5.354)" fill="#1d714d"/><path d="M309.466,17.52V32.894l-8.8-15.374h-4.8V39.442h4.257V23.658l9.027,15.784h4.562V17.52Z" transform="translate(-90.419 -5.354)" fill="#1d714d"/><path d="M353.41,17.52V31.338a5.393,5.393,0,0,1-.972,3.625,4.216,4.216,0,0,1-3.278,1.09,4.111,4.111,0,0,1-3.222-1.187,5.124,5.124,0,0,1-1.062-3.528V17.52H340.3V31.186q0,4.521,2.187,6.687t6.673,2.2q4.694,0,6.77-2.083t2.083-6.777V17.52Z" transform="translate(-103.997 -5.354)" fill="#1d714d"/><path d="M385.555,17.52V32.894L376.763,17.52H372V39.442h4.264V23.658l9.027,15.784h4.562V17.52Z" transform="translate(-113.684 -5.354)" fill="#1d714d"/><path d="M403.49,17.52V39.442h4.576V17.52Z" transform="translate(-123.308 -5.354)" fill="#1d714d"/><path d="M433.055,19.813a10.956,10.956,0,0,0-15.381,0,12.254,12.254,0,0,0-2.854,8.534q0,5.27,2.854,8.333a10.215,10.215,0,0,0,7.687,3.132,9.923,9.923,0,0,0,7.694-3.09,11.9,11.9,0,0,0,2.847-8.333Q435.9,22.972,433.055,19.813Zm-3.312,14.075a5.805,5.805,0,0,1-8.77,0,8.809,8.809,0,0,1-1.576-5.555,9.311,9.311,0,0,1,1.583-5.708,5.7,5.7,0,0,1,8.763,0,9.227,9.227,0,0,1,1.583,5.708A8.767,8.767,0,0,1,429.743,33.888Z" transform="translate(-126.77 -5.091)" fill="#1d714d"/><path d="M463.736,17.52V32.894l-8.8-15.374h-4.8V39.442h4.271V23.658l9.027,15.784H468V17.52Z" transform="translate(-137.564 -5.354)" fill="#1d714d"/><path d="M143.918,65.507V63.32H130.1V82.61h2.437V73.722h10.534V71.528H132.544v-6.02Z" transform="translate(-39.759 -19.351)" fill="#1d714d"/><path d="M171.582,68.52a8.332,8.332,0,0,0-1.9-3.111,8.741,8.741,0,0,0-6.757-2.66,10.172,10.172,0,0,0-2.021.194,11.151,11.151,0,0,0-1.861.562,9.027,9.027,0,0,0-1.639.868,8.216,8.216,0,0,0-1.389,1.139,9.361,9.361,0,0,0-1.861,3.243,13.053,13.053,0,0,0-.653,4.229,12.02,12.02,0,0,0,.653,4.034,9.207,9.207,0,0,0,1.861,3.139,8.826,8.826,0,0,0,2.972,1.958,10.062,10.062,0,0,0,3.784.694,10.276,10.276,0,0,0,3.472-.576,8.59,8.59,0,0,0,2.778-1.653,9.846,9.846,0,0,0,2.326-3.472,13.319,13.319,0,0,0,.167-8.555ZM167.867,78.5a6.132,6.132,0,0,1-4.944,2.083A6.326,6.326,0,0,1,157.93,78.5a8.179,8.179,0,0,1-1.826-5.632,11.908,11.908,0,0,1,.437-3.375A6.652,6.652,0,0,1,157.867,67a7.091,7.091,0,0,1,10-.042,8.163,8.163,0,0,1,1.785,5.6A8.9,8.9,0,0,1,167.867,78.5Z" transform="translate(-46.91 -19.177)" fill="#1d714d"/><path d="M200.482,82.6a5.4,5.4,0,0,1-.743-2.833V77.484a10.986,10.986,0,0,0-.125-1.8,4.166,4.166,0,0,0-.354-1.194,3.778,3.778,0,0,0-2.18-1.451,7.854,7.854,0,0,0,1.444-.854,3.9,3.9,0,0,0,.9-.93,4.228,4.228,0,0,0,.458-1.18,6.3,6.3,0,0,0,.167-1.507,4.723,4.723,0,0,0-2.486-4.576,3.861,3.861,0,0,0-.778-.333,5.472,5.472,0,0,0-.882-.2,20.631,20.631,0,0,0-2.778-.139H185.15v19.29H187.6V74.276h5.389a12.906,12.906,0,0,1,1.34.042,6.111,6.111,0,0,1,.91.111,2.9,2.9,0,0,1,.639.222,1.8,1.8,0,0,1,.5.368,3.222,3.222,0,0,1,.833,2.486v2.437a8.109,8.109,0,0,0,.1,1.243,11.107,11.107,0,0,0,.326,1.389H200.5Zm-4.416-11.013-.556.243a2.215,2.215,0,0,1-.583.174,15.366,15.366,0,0,1-2.083.09h-5.257V65.506h5.479a7.082,7.082,0,0,1,2.778.368,2.6,2.6,0,0,1,1.25,1.139,3.708,3.708,0,0,1,.417,1.792,3.472,3.472,0,0,1-.382,1.687A2.646,2.646,0,0,1,196.066,71.582Z" transform="translate(-56.582 -19.349)" fill="#1d714d"/><path d="M238.862,82.595a5.4,5.4,0,0,1-.743-2.833V77.484a10.986,10.986,0,0,0-.125-1.8,4.409,4.409,0,0,0-.347-1.194,3.771,3.771,0,0,0-2.187-1.451,7.927,7.927,0,0,0,1.451-.854,4.033,4.033,0,0,0,.9-.93,4.451,4.451,0,0,0,.458-1.18,6.313,6.313,0,0,0,.16-1.507,4.726,4.726,0,0,0-2.479-4.576,4.034,4.034,0,0,0-.778-.333,5.558,5.558,0,0,0-.889-.2,20.444,20.444,0,0,0-2.778-.139H223.53v19.29h2.451V74.276h5.4a13.04,13.04,0,0,1,1.34.042,6,6,0,0,1,.9.111,2.674,2.674,0,0,1,.639.222,1.736,1.736,0,0,1,.507.368,3.222,3.222,0,0,1,.833,2.486v2.437a8.107,8.107,0,0,0,.1,1.243,10.031,10.031,0,0,0,.326,1.389h2.854Zm-4.409-11.013-.556.243a2.34,2.34,0,0,1-.59.174,15.278,15.278,0,0,1-2.083.09H225.96V65.506h5.534a7.083,7.083,0,0,1,2.778.368,2.583,2.583,0,0,1,1.243,1.139,3.709,3.709,0,0,1,.417,1.792,3.563,3.563,0,0,1-.375,1.687A2.736,2.736,0,0,1,234.453,71.582Z" transform="translate(-68.311 -19.349)" fill="#1d714d"/><path d="M253.515,80.409V73.722h10.52V71.528h-10.52v-6.02H264.9V63.32H251.05V82.61h13.992v-2.2Z" transform="translate(-76.722 -19.351)" fill="#1d714d"/><path d="M287.156,72.965l-3.472-9.645H281L273.56,82.61h2.6c.347-.965.694-1.93,1.062-2.91s.694-1.944,1.062-2.9h7.7l1.944,5.812h2.687Zm-8.117,1.875,3.194-9.1,3.007,9.1Z" transform="translate(-83.601 -19.351)" fill="#1d714d"/><path d="M304.375,80.409V63.32H301.91V82.61h12.346v-2.2Z" transform="translate(-92.265 -19.351)" fill="#1d714d"/><path d="M336.405,80.409V73.722h10.52V71.528h-10.52v-6.02h11.367V63.32H333.94V82.61h14v-2.2Z" transform="translate(-102.053 -19.351)" fill="#1d714d"/><path d="M369.48,72.157h0l-3.076-.771-3.076-.785a4.611,4.611,0,0,1-1.8-.986,2.084,2.084,0,0,1-.486-1.389v-.1A2.729,2.729,0,0,1,362.2,65.81a4.645,4.645,0,0,1,1.389-.632,6.117,6.117,0,0,1,1.687-.236,6.746,6.746,0,0,1,1.25.118,4.859,4.859,0,0,1,1.132.333,4.207,4.207,0,0,1,.923.507,2.828,2.828,0,0,1,.66.694c.09.146.174.3.25.451a2.037,2.037,0,0,1,.153.451,5.1,5.1,0,0,1,.118,1.278h2.59l-.042-.243a.676.676,0,0,0-.035-.257,5.749,5.749,0,0,0-.3-2.083,4.364,4.364,0,0,0-.4-.75,5.129,5.129,0,0,0-.6-.75q-1.882-1.972-5.659-1.972a9.333,9.333,0,0,0-2.944.437,6.589,6.589,0,0,0-2.229,1.208,6.165,6.165,0,0,0-1.264,1.8,4.479,4.479,0,0,0-.417,1.944v.347a4.006,4.006,0,0,0,.9,2.618,6.152,6.152,0,0,0,2.708,1.764c1.014.243,2.007.493,2.965.736l2.965.736a3.424,3.424,0,0,1,1.958,1.347,3.208,3.208,0,0,1,.493,1.667,2.556,2.556,0,0,1-.354,1.333,3.257,3.257,0,0,1-1.028,1.042,5.465,5.465,0,0,1-1.569.646,7.894,7.894,0,0,1-1.965.236,6.174,6.174,0,0,1-4.222-1.278,2.673,2.673,0,0,1-.833-1.09,2.779,2.779,0,0,1-.167-.694,7.543,7.543,0,0,1-.056-.937v-.444H357.71v.472a5.542,5.542,0,0,0,1.958,4.618,9.106,9.106,0,0,0,5.77,1.549,11.4,11.4,0,0,0,3.305-.417,6.507,6.507,0,0,0,2.361-1.222,5.617,5.617,0,0,0,1.444-1.861,5.153,5.153,0,0,0,.472-2.2V76.8Q373,73.448,369.48,72.157Z" transform="translate(-109.317 -19.167)" fill="#1d714d"/><path d="M382,63.32v2.187h6.451v17.1h2.43v-17.1h6.513V63.32Z" transform="translate(-116.74 -19.351)" fill="#1d714d"/><path d="M418.746,72.965l-3.472-9.645h-2.687L405.15,82.61h2.6c.347-.965.694-1.93,1.062-2.91s.694-1.944,1.062-2.9h7.673l1.944,5.812h2.687ZM410.6,74.84l3.194-9.1,3.055,9.1Z" transform="translate(-123.815 -19.351)" fill="#1d714d"/><path d="M430.74,63.32v2.187h6.43v17.1h2.437v-17.1h6.506V63.32Z" transform="translate(-131.635 -19.351)" fill="#1d714d"/><path d="M459.225,80.409V73.722h10.52V71.528h-10.52v-6.02h11.367V63.32H456.76V82.61h13.992v-2.2Z" transform="translate(-139.587 -19.351)" fill="#1d714d"/><path d="M28.9,32.345V0L21.72,5.958V35.352Z" transform="translate(-6.638)" fill="#4aae61"/><path d="M58.351,0V39.115q-2.583.146-5.208.146H50.97V8.152Z" transform="translate(-15.577)" fill="#4aae61"/><path d="M58.361,71.169V98.112L51,106.118V71.1c1.507.069,3.035.111,4.576.111C56.5,71.211,57.437,71.2,58.361,71.169Z" transform="translate(-15.586 -21.728)" fill="#4aae61"/><path d="M87.144,20.882V39.95c-.444.167-.9.326-1.389.479a58.912,58.912,0,0,1-5.965,1.639V15.25Z" transform="translate(-24.384 -4.66)" fill="#4aae61"/><path d="M87.146,74.942V66.47a62.393,62.393,0,0,1-7.326,1.882V82.934Z" transform="translate(-24.393 -20.313)" fill="#4aae61"/><path d="M13.963,9.28V38.188l-.278-.312L6.38,29.633V16.356Z" transform="translate(-1.95 -2.836)" fill="#008340"/><path d="M43.533,8.537V39.382c-2.576-.146-5.09-.4-7.493-.757V.85Z" transform="translate(-11.014 -0.26)" fill="#008340"/><path d="M40.27,70c1.493.215,3.007.4,4.555.535v9.722Z" transform="translate(-12.307 -21.392)" fill="#008340"/><path d="M72.9.85V38.195l-.694.125c-2.083.354-4.166.639-6.354.833V7.981Z" transform="translate(-20.124 -0.26)" fill="#008340"/><path d="M72.907,69.69V86.772L65.88,94.411V70.669C68.31,70.5,70.657,70.058,72.907,69.69Z" transform="translate(-20.133 -21.297)" fill="#008340"/><path d="M101.944,39.1v.771A22.533,22.533,0,0,1,95,44.6V34.77Z" transform="translate(-29.032 -10.626)" fill="#008340"/><path d="M80.14,36.911c0,4.68-3.569,9.159-10.1,12.714q-.694.361-1.389.694c-.882.437-1.785.847-2.722,1.236s-2.083.812-3.18,1.18a62.063,62.063,0,0,1-7.333,1.944c-.868.181-1.75.34-2.639.479-2.271.375-4.625.646-7.02.812-.993.062-1.986.118-2.993.153s-1.861.042-2.778.042q-2.319.014-4.569-.125c-.972-.056-1.937-.125-2.882-.215-1.9-.167-3.771-.41-5.555-.694A59.023,59.023,0,0,1,13.423,51.3h0q-1.042-.458-2.083-.958C4.819,47.147.882,43.091,0,38.772c2.257,2.778,6.1,5.25,11.228,7.187A65.884,65.884,0,0,0,25,49.355c2.43.333,4.937.576,7.493.694.951.049,1.917.083,2.882.111h2.167c1.757,0,3.472-.056,5.208-.153,1.007-.056,2-.125,2.993-.215,2.285-.2,4.527-.493,6.708-.875l.312-.049c.9-.16,1.778-.333,2.639-.521a61.014,61.014,0,0,0,6.638-1.8l.694-.236q1.673-.583,3.18-1.243a28.672,28.672,0,0,0,7-4.166c2.937-2.451,4.507-5.222,4.507-8.118a8.423,8.423,0,0,0-.236-2,9.208,9.208,0,0,0-.694-1.917C78.856,31.411,80.14,34.134,80.14,36.911Z" transform="translate(0 -8.823)" fill="#caa45d"/><path d="M16.9,50.46l.278.306v-.208A2.2,2.2,0,0,1,16.9,50.46Z" transform="translate(-5.165 -15.421)" fill="#caa45d"/><path d="M83.545,35.508c0,5.423-4.521,10.347-11.8,13.888-.889.437-1.833.854-2.778,1.25s-2.083.833-3.208,1.215a61.313,61.313,0,0,1-7.333,1.917c-.868.181-1.75.34-2.646.486-2.257.361-4.6.632-7.02.805-.979.069-1.979.118-2.986.146s-1.861.056-2.778.056c-1.549,0-3.083-.042-4.583-.132-.965-.049-1.93-.118-2.875-.208q-2.778-.25-5.354-.694C21.862,52.9,14.751,50.285,9.8,46.876a43.054,43.054,0,0,0,6.555,3.014h0a64.322,64.322,0,0,0,13.277,3.222q2.854.4,5.861.59c.944.056,1.91.1,2.875.132.792,0,1.583.035,2.382.035,1.694,0,3.361-.056,5-.153,1.007-.056,2-.139,2.986-.236,2.423-.236,4.771-.576,7.02-1.014.9-.174,1.778-.361,2.646-.569a57.593,57.593,0,0,0,7.333-2.222c1.146-.417,2.187-.868,3.229-1.34a31.844,31.844,0,0,0,6.944-4.347c3.472-2.9,5.437-6.25,5.437-9.86a10.166,10.166,0,0,0-1.174-4.659A13.63,13.63,0,0,0,78.684,27.1a13.443,13.443,0,0,0-2.368-2.819C80.969,27.558,83.545,31.453,83.545,35.508Z" transform="translate(-2.995 -7.42)" fill="url(#a)"/><path d="M102.679,86.655,95.95,93.4V81.051l.028-.021Z" transform="translate(-29.323 -24.763)" fill="#4aae61"/></g></g></svg>