<svg id="Groupe_3205" data-name="Groupe 3205" xmlns="http://www.w3.org/2000/svg" xmlns:xlink="http://www.w3.org/1999/xlink" width="105.439" height="80.731" viewBox="0 0 105.439 80.731">
  <defs>
    <clipPath id="clip-path">
      <rect id="Rectangle_401" data-name="Rectangle 401" width="105.439" height="80.731" fill="#fff"/>
    </clipPath>
  </defs>
  <g id="Groupe_3204" data-name="Groupe 3204" clip-path="url(#clip-path)">
    <path id="Tracé_2908" data-name="Tracé 2908" d="M105.421,27.454a8.755,8.755,0,0,0-8.552-8.874,3.182,3.182,0,0,0-.555,6.338c2.165.3,2.747.971,2.748,3.163q0,19.96,0,39.92a6.1,6.1,0,0,1-12.165.784c-.027-.513-.023-1.029-.023-1.543q0-28.911,0-57.823c0-3.806-1.48-6.833-5.011-8.5A9.857,9.857,0,0,0,77.8.043Q43.412-.035,9.028.015A8.629,8.629,0,0,0,.183,6.963,4.25,4.25,0,0,1,0,7.439V73.5a27.19,27.19,0,0,0,1.947,3.893A8.062,8.062,0,0,0,8.286,80.7c.342.024.686.027,1.029.027q41.539,0,83.079.006c5.469,0,9.518-2.358,11.86-7.286a12.04,12.04,0,0,0,1.123-4.94c.088-13.683.062-27.368.044-41.052m-24.705,46.9H9.693c-2.64,0-3.326-.694-3.326-3.359q0-30.708,0-61.415c0-2.439.754-3.2,3.173-3.2H77.27c2.425,0,3.225.815,3.225,3.284q0,27.621,0,55.242c0,3.174-.27,6.39,1.641,9.449Z" transform="translate(0 -0.001)" fill="#fff"/>
    <path id="Tracé_2909" data-name="Tracé 2909" d="M136.36,204.649q-10.955-.012-21.91,0-11.006,0-22.012,0A3.18,3.18,0,1,0,92.4,211q22.012.017,44.025-.016a3.887,3.887,0,0,0,1.833-.529,3.084,3.084,0,0,0,1.358-3.482,3.217,3.217,0,0,0-3.253-2.326" transform="translate(-70.693 -162.422)" fill="#fff"/>
    <path id="Tracé_2910" data-name="Tracé 2910" d="M136.113,280.7q-21.567-.01-43.135,0a5.793,5.793,0,0,0-1.425.168,3.124,3.124,0,0,0-2.212,3.751c.4,1.646,1.581,2.456,3.652,2.458q10.758.011,21.516,0,10.6,0,21.207,0a12.337,12.337,0,0,0,1.438-.061,3.043,3.043,0,0,0,2.676-2.913c.085-2.082-1.337-3.407-3.718-3.408" transform="translate(-70.839 -222.784)" fill="#fff"/>
    <path id="Tracé_2911" data-name="Tracé 2911" d="M89.757,86.314c3.977.03,7.954.038,11.93,0,2.293-.022,3.52-1.291,3.539-3.623q.046-5.858-.006-11.717a4.829,4.829,0,0,0-.336-1.8,3.076,3.076,0,0,0-3.263-1.8,2.989,2.989,0,0,0-2.692,2.795c-.1,2.085-.064,4.177-.079,6.266-.008,1.121,0,2.242,0,3.5H97.528c-2.5,0-5.006-.038-7.507.023a5.348,5.348,0,0,0-2.257.51A3.007,3.007,0,0,0,86.384,84a3.236,3.236,0,0,0,3.373,2.315" transform="translate(-68.462 -53.443)" fill="#fff"/>
    <path id="Tracé_2912" data-name="Tracé 2912" d="M212.178,134.762c3.117.025,6.235.006,9.353.007,3.015,0,6.03.005,9.045,0a8.3,8.3,0,0,0,1.429-.116,3.157,3.157,0,0,0,.388-6.083,6.79,6.79,0,0,0-1.829-.183q-8.993-.019-17.987,0a9.751,9.751,0,0,0-1.433.088,3.054,3.054,0,0,0-2.572,2.9c-.077,2.063,1.292,3.382,3.607,3.4" transform="translate(-165.537 -101.887)" fill="#fff"/>
  </g>
</svg>
