<svg xmlns="http://www.w3.org/2000/svg" width="35.191" height="36.337" viewBox="0 0 35.191 36.337"><path d="M17.813,0A17.824,17.824,0,0,0,0,17.813a19.965,19.965,0,0,0,2.184,8.6,1.234,1.234,0,0,0,2.184-1.092,17.475,17.475,0,0,1-1.955-7.47A15.29,15.29,0,1,1,17.7,33.136a15.891,15.891,0,0,1-6.782-1.627,1.223,1.223,0,0,0-.939-.076l-7.8,2.49a1.234,1.234,0,0,0,.371,2.414,1.158,1.158,0,0,0,.382-.055l7.317-2.337a18.326,18.326,0,0,0,7.569,1.671A17.813,17.813,0,0,0,17.813,0Z" transform="translate(0)" fill="#008340"/><path d="M13.581,13.988a1.234,1.234,0,0,0,1.507,1.955A2.687,2.687,0,0,0,16.333,13.5a6.771,6.771,0,0,0-1.551-2.752A6.072,6.072,0,0,0,12.391,8.68a2.7,2.7,0,0,0-1.824.087,4.369,4.369,0,0,0-2.545,2.457A4.161,4.161,0,0,0,8.24,14.61a22.247,22.247,0,0,0,5.122,7h0A22.215,22.215,0,0,0,20.9,25.98a4.849,4.849,0,0,0,1.584.284,3.8,3.8,0,0,0,1.8-.448A4.369,4.369,0,0,0,26.4,23a2.676,2.676,0,0,0-.12-1.824,6.192,6.192,0,0,0-2.315-2.184,6.673,6.673,0,0,0-2.916-1.234h0a2.7,2.7,0,0,0-2.294,1.5,1.245,1.245,0,1,0,2.119,1.289,3.168,3.168,0,0,1,.2-.295A9.371,9.371,0,0,1,24,22.146a.218.218,0,0,1,0,.142,2,2,0,0,1-.885,1.289,1.857,1.857,0,0,1-1.431,0A19.757,19.757,0,0,1,15,19.733h0A19.856,19.856,0,0,1,10.425,13.5a1.846,1.846,0,0,1-.142-1.42,2.042,2.042,0,0,1,1.18-1.027H11.6a9.545,9.545,0,0,1,2.261,2.719L13.592,14Z" transform="translate(0.715 0.789)" fill="#008340"/></svg>