<svg id="Groupe_3163" data-name="Groupe 3163" xmlns="http://www.w3.org/2000/svg" xmlns:xlink="http://www.w3.org/1999/xlink" width="62.848" height="52.456" viewBox="0 0 62.848 52.456">
  <defs>
    <clipPath id="clip-path">
      <rect id="Rectangle_362" data-name="Rectangle 362" width="62.848" height="52.456" fill="#d5d5d5"/>
    </clipPath>
  </defs>
  <g id="Groupe_3162" data-name="Groupe 3162" clip-path="url(#clip-path)">
    <path id="Tracé_2900" data-name="Tracé 2900" d="M14.541,52.456c-4.5-.225-8.123-2.5-10.889-6.242A18.963,18.963,0,0,1,.01,35.166c-.2-8.028,2.624-15.031,7.46-21.3A59.71,59.71,0,0,1,22.7.454c1.135-.736,1.84-.579,2.668.485q.722.927,1.438,1.858c.819,1.07.7,1.733-.384,2.508a53.58,53.58,0,0,0-14.6,15.326,10.6,10.6,0,0,0-1.255,3.241,1.866,1.866,0,0,0,1.348,2.382c1.377.527,2.806.915,4.211,1.372a14.629,14.629,0,0,1,6.843,4.019,12.5,12.5,0,0,1-.429,17.362,10.829,10.829,0,0,1-7.994,3.449" transform="translate(0 0)" fill="#d5d5d5"/>
    <path id="Tracé_2901" data-name="Tracé 2901" d="M211.271,33.774c.43-9.4,4.4-16.981,10.645-23.525a66.081,66.081,0,0,1,11.968-9.7c1.271-.825,1.925-.7,2.861.483.468.593.93,1.19,1.38,1.8.808,1.086.689,1.736-.416,2.514a54.257,54.257,0,0,0-13.842,14.121,18.063,18.063,0,0,0-1.936,3.961,2.053,2.053,0,0,0,1.388,2.882c1.507.576,3.066,1.019,4.609,1.5a12.83,12.83,0,0,1,8.52,7.248c2.1,4.843,1.309,9.269-2.02,13.285a10.183,10.183,0,0,1-9.51,4.02c-4.994-.617-8.491-3.485-10.976-7.686a20.579,20.579,0,0,1-2.672-10.9" transform="translate(-175.801 -0.02)" fill="#d5d5d5"/>
  </g>
</svg>
