<svg xmlns="http://www.w3.org/2000/svg" width="141.003" height="80.59" viewBox="0 0 141.003 80.59">
  <path id="Union_9" data-name="Union 9" d="M-2152.174-1738.41v-24.177h-12.089l10.235-30.745a8.059,8.059,0,0,1,7.656-5.521h.483a8.1,8.1,0,0,1,7.656,5.521l10.235,30.745h-12.089v24.177Zm-38.281,0v-30.221h-6.044v-22.162a8.083,8.083,0,0,1,8.059-8.059h12.088a8.083,8.083,0,0,1,8.06,8.059v22.162h-6.044v30.221Zm-34.221,0v-24.177h-12.088l10.235-30.745a8.059,8.059,0,0,1,7.656-5.521h.483a8.1,8.1,0,0,1,7.656,5.521l10.235,30.745h-12.089v24.177Zm-38.28,0v-30.221H-2269v-22.162a8.083,8.083,0,0,1,8.059-8.059h12.089a8.084,8.084,0,0,1,8.06,8.059v22.162h-6.044v30.221Zm108.767-72.531a8.031,8.031,0,0,1,8.059-8.059,8.032,8.032,0,0,1,8.06,8.059,8.032,8.032,0,0,1-8.06,8.059A8.031,8.031,0,0,1-2154.189-1810.941Zm-36.266,0A8.031,8.031,0,0,1-2182.4-1819a8.032,8.032,0,0,1,8.06,8.059,8.032,8.032,0,0,1-8.06,8.059A8.032,8.032,0,0,1-2190.454-1810.941Zm-36.236,0a8.031,8.031,0,0,1,8.059-8.059,8.031,8.031,0,0,1,8.059,8.059,8.032,8.032,0,0,1-8.059,8.059A8.031,8.031,0,0,1-2226.69-1810.941Zm-36.266,0A8.031,8.031,0,0,1-2254.9-1819a8.032,8.032,0,0,1,8.06,8.059,8.032,8.032,0,0,1-8.06,8.059A8.031,8.031,0,0,1-2262.956-1810.941Z" transform="translate(2269 1819)" fill="#caa45d"/>
</svg>
